# xmcd
#
# Track frame offsets:
#	150
#	11484
#	32775
#	47840
#	63741
#	77879
#	91508
#	104858
#	120189
#	135945
#	153114
#	169693
#	190020
#
# Disc length: 2705 seconds
#
# Revision: 0
# Processed by: cddbd v1.5.2PL0 Copyright (c) Steve Scherf et al.
# Submitted via: EasyCDDAExtractor 16.0.8.2
#
DISCID=990a8f0d
DTITLE=Συλλογικός δίσκος - Στο Βόλο και στην Λάρισα
DYEAR=1983
DGENRE=Ρεμπέτικη
TTITLE0=Παρθένης Ν.-Ματζίρης Αχ.-Αμουτζοπούλου Ν. - Στο Βόλο και στην Λάρισα
TTITLE1=Ματζίρης Αχιλλέας-Αμουτζοπούλου Ν. - Για τον Τσιτσάνη
TTITLE2=Αμουτζοπούλου Ν.-Παρθένης Ν.-Ματζίρης Αχ. - Ο Θανάσης
TTITLE3=Αβαράκης Κ.-Αμουτζοπούλου Ν. - Μπατίρισσα
TTITLE4=Αβαράκης Κ.-Αμουτζοπούλου Ν. - Μηνάς ο καροτσέρης
TTITLE5=Πόρναλης Μ.-Αμουτζοπούλου Ν.-Παρθένης Ν. - Το λούσο σε παρέσυρε
TTITLE6=Παρθένης Ν.-Ματζίρης Αχ.-Αμουτζοπούλου Ν. - Οι σφουγγαράδες
TTITLE7=Παρθένης Ν. - Σαν πουλί πετώ
TTITLE8=Παρθένης Ν.-Αμουτζοπούλου Ν. - Η τσιγγάνα
TTITLE9=Ματζίρης Αχιλλέας - Το τσιμπούκι με μπουζούκι
TTITLE10=Παρθένης Ν.-Ματζίρης Αχ.-Αμουτζοπούλου Ν. - Στης Σαλονίκης τα στενά
TTITLE11=Ματζίρης Αχιλλέας-Αμουτζοπούλου Ν. - Φύγαν οι μάγκες οι παλιοί
TTITLE12=Ματζίρης Αχιλλέας-Ανφάν Γκατέ Ρεμπέτες - Η Σκάλα του Μιλάνου
EXTD=
EXTT0=
EXTT1=
EXTT2=
EXTT3=
EXTT4=
EXTT5=
EXTT6=
EXTT7=
EXTT8=
EXTT9=
EXTT10=
EXTT11=
EXTT12=
PLAYORDER=
